<svg width="1024" height="1024" viewBox="0 0 1024 1024" xmlns="http://www.w3.org/2000/svg">
  <defs>
    <!-- teaveloper 공식 브랜드 그라데이션 -->
    <linearGradient id="g" x1="0" y1="0" x2="1" y2="1">
      <stop offset="0%"   stop-color="#6366f1"/>
      <stop offset="50%"  stop-color="#8b5cf6"/>
      <stop offset="100%" stop-color="#06b6d4"/>
    </linearGradient>
    <clipPath id="frame"><rect x="244" y="226" width="430" height="412" rx="46"/></clipPath>
  </defs>

  <!-- 브랜드 라운드 사각형 -->
  <rect x="112" y="112" width="800" height="800" rx="184" fill="url(#g)"/>

  <!-- 사진 프레임 + 그 안에 teaveloper 엠블럼(머리 원 + 몸통 삼각) -->
  <g clip-path="url(#frame)">
    <rect x="244" y="226" width="430" height="412" fill="#FFFFFF" opacity="0.16"/>
    <circle cx="459" cy="360" r="60" fill="#FFFFFF"/>
    <path d="M459 396 Q459 396 459 396 L383 582 L535 582 Z" fill="#FFFFFF"/>
  </g>
  <rect x="244" y="226" width="430" height="412" rx="46" fill="none" stroke="#FFFFFF" stroke-width="26"/>

  <!-- 깔끔한 편집 연필 (우하단, 팁이 좌상 방향) -->
  <g transform="translate(688 700) rotate(-45)">
    <!-- 흑심 -->
    <path d="M-168 0 L-132 -22 L-132 22 Z" fill="#3730a3"/>
    <!-- 나무 깎인 부분 -->
    <path d="M-132 -22 L-132 22 L-96 30 L-96 -30 Z" fill="#F1ECFF"/>
    <!-- 몸통 -->
    <rect x="-96" y="-30" width="208" height="60" fill="#FFFFFF"/>
    <!-- 금속 띠 -->
    <rect x="112" y="-30" width="22" height="60" fill="#C9C2F0"/>
    <!-- 지우개 -->
    <rect x="134" y="-30" width="34" height="60" rx="16" fill="#FFFFFF"/>
  </g>
</svg>
