<svg width="1024" height="1024" viewBox="0 0 1024 1024" xmlns="http://www.w3.org/2000/svg">
  <defs>
    <!-- teaveloper 공식 브랜드 그라데이션 -->
    <linearGradient id="g" x1="0" y1="0" x2="1" y2="1">
      <stop offset="0%"   stop-color="#6366f1"/>
      <stop offset="50%"  stop-color="#8b5cf6"/>
      <stop offset="100%" stop-color="#06b6d4"/>
    </linearGradient>
    <clipPath id="frame"><rect x="216" y="216" width="592" height="592" rx="58"/></clipPath>
  </defs>

  <!-- 브랜드 라운드 사각형 -->
  <rect x="112" y="112" width="800" height="800" rx="184" fill="url(#g)"/>

  <!-- 중앙에 꽉 찬 사진 액자 + teaveloper 엠블럼 -->
  <g clip-path="url(#frame)">
    <rect x="216" y="216" width="592" height="592" fill="#FFFFFF" opacity="0.16"/>
    <circle cx="512" cy="424" r="92" fill="#FFFFFF"/>
    <path d="M512 474 L388 720 L636 720 Z" fill="#FFFFFF"/>
  </g>
  <rect x="216" y="216" width="592" height="592" rx="58" fill="none" stroke="#FFFFFF" stroke-width="30"/>

  <!-- 편집 붓 (우하단, 붓끝이 좌상 방향) — 흰색+윤곽선, 납작한 페인트 붓 -->
  <g transform="translate(742 742) rotate(-45) scale(1.12)" fill="#FFFFFF" stroke="#4f46b8" stroke-width="8" stroke-linejoin="round">
    <!-- 손잡이 -->
    <rect x="12" y="-19" width="170" height="38" rx="19"/>
    <!-- 금속 띠 -->
    <rect x="-26" y="-25" width="42" height="50" rx="8"/>
    <!-- 터럭(납작하게 펴진 붓끝) -->
    <path d="M-22 -25 L-110 -36 Q-126 -38 -126 -24 L-126 24 Q-126 38 -110 36 L-22 25 Z"/>
    <!-- 갈라진 터럭 -->
    <path d="M-76 -16 L-118 -24 M-80 0 L-124 0 M-76 16 L-118 24" fill="none" stroke-width="6" stroke-linecap="round"/>
  </g>
</svg>
